<?xml version="1.0"?>
<svg width="295" height="295" xmlns="http://www.w3.org/2000/svg" xmlns:svg="http://www.w3.org/2000/svg">
 <!-- Created with SVG-edit - https://github.com/SVG-Edit/svgedit-->

 <g class="layer" display="inline">
  <title>Layer 1</title>
  <rect fill="#ffffff" height="290" id="svg_1" stroke="#000000" stroke-width="5" width="290" x="2.5" y="2.5"/>
  <rect fill="#ffffff" fill-opacity="null" height="50" id="svg_7" stroke="#000000" stroke-dasharray="null" stroke-linecap="null" stroke-linejoin="null" stroke-opacity="null" stroke-width="5" width="100" x="10.5" y="12.08"/>
  <rect fill="#ffffff" fill-opacity="null" height="50" id="svg_2" stroke="#000000" stroke-dasharray="null" stroke-linecap="null" stroke-linejoin="null" stroke-opacity="null" stroke-width="5" width="100" x="184.5" y="12.08"/>
  <rect fill="#ffffff" fill-opacity="null" height="36.4" id="svg_3" stroke="#000000" stroke-dasharray="null" stroke-linecap="null" stroke-linejoin="null" stroke-opacity="null" stroke-width="5" width="43.51" x="125.75" y="23.85"/>
  <ellipse cx="147.5" cy="150.44" fill="#ffffff" fill-opacity="null" id="svg_4" rx="57.64" ry="57.64" stroke="#000000" stroke-dasharray="null" stroke-linecap="null" stroke-linejoin="null" stroke-opacity="null" stroke-width="5"/>
  <polygon cx="23.84" cy="86.68" edge="32.84" fill="#ffffff" id="svg_9" orient="x" points="104.79091396927834,150.43682861328125 92.42156735062599,159.54049682617188 92.42156735062599,141.33316040039062 104.79091396927834,150.43682861328125" shape="regularPoly" sides="3" stroke="#000000" stroke-width="5"/>
  <polygon cx="23.84" cy="86.68" edge="32.84" fill="#ffffff" id="svg_10" orient="x" points="147.50314331054688,193.14699038863182 156.6068115234375,205.51648196578026 138.39947509765625,205.51648196578026 147.50314331054688,193.14699038863182" shape="regularPoly" sides="3" stroke="#000000" stroke-width="5" transform="matrix(1, 0, 0, 1, 0, 0)"/>
  <polygon cx="23.84" cy="86.68" edge="32.84" fill="#ffffff" id="svg_11" orient="x" points="190.20805606245995,150.43507385253906 202.5773797929287,141.33140563964844 202.5773797929287,159.5387420654297 190.20805606245995,150.43507385253906" shape="regularPoly" sides="3" stroke="#000000" stroke-width="5" transform="matrix(1, 0, 0, 1, 0, 0)"/>
  <text fill="#000000" fill-opacity="null" font-family="Sans-serif" font-size="18" id="svg_12" stroke="#000000" stroke-dasharray="null" stroke-linecap="null" stroke-linejoin="null" stroke-opacity="null" stroke-width="0" text-anchor="middle" transform="matrix(1, 0, 0, 1, 0, 0)" x="147.5" xml:space="preserve" y="110.81">UP</text>
  <ellipse cx="143.88" cy="150.44" fill="#000000" id="svg_13" rx="7.26" ry="7.26" stroke="#000000" stroke-dasharray="null" stroke-linecap="null" stroke-linejoin="null" stroke-opacity="null" stroke-width="5" transform="matrix(1, 0, 0, 1, 3.615, 0)"/>
  <path d="m147.49,134.98l5.14,9.87l-10.29,0l5.14,-9.87z" fill="#000000" id="svg_14" stroke="#000000" stroke-dasharray="null" stroke-linecap="null" stroke-linejoin="null" stroke-opacity="null" stroke-width="5" transform="matrix(1, 0, 0, 1, 0, 0)"/>
  <g id="svg_37" transform="translate(-0.11)">
   <g id="svg_22">
    <ellipse cx="71.38" cy="191.81" fill="#ffffff" id="svg_16" rx="7.66" ry="7.66" stroke="#000000" stroke-dasharray="null" stroke-linecap="null" stroke-linejoin="null" stroke-opacity="null" stroke-width="5"/>
    <ellipse cx="92.23" cy="209.25" fill="#ffffff" id="svg_17" rx="7.66" ry="7.66" stroke="#000000" stroke-dasharray="null" stroke-linecap="null" stroke-linejoin="null" stroke-opacity="null" stroke-width="5"/>
    <ellipse cx="118.61" cy="220.32" fill="#ffffff" id="svg_18" rx="7.66" ry="7.66" stroke="#000000" stroke-dasharray="null" stroke-linecap="null" stroke-linejoin="null" stroke-opacity="null" stroke-width="5"/>
    <ellipse cx="52.88" cy="206.49" fill="#ffffff" id="svg_21" rx="7.66" ry="7.66" stroke="#000000" stroke-dasharray="null" stroke-linecap="null" stroke-linejoin="null" stroke-opacity="null" stroke-width="5"/>
    <ellipse cx="76.28" cy="227.33" fill="#ffffff" id="svg_20" rx="7.66" ry="7.66" stroke="#000000" stroke-dasharray="null" stroke-linecap="null" stroke-linejoin="null" stroke-opacity="null" stroke-width="5"/>
    <ellipse cx="111.17" cy="241.81" fill="#ffffff" id="svg_19" rx="7.66" ry="7.66" stroke="#000000" stroke-dasharray="null" stroke-linecap="null" stroke-linejoin="null" stroke-opacity="null" stroke-width="5"/>
   </g>
   <ellipse cx="71.38" cy="191.81" fill="#ffffff" id="svg_31" rx="7.66" ry="7.66" stroke="#000000" stroke-dasharray="null" stroke-linecap="null" stroke-linejoin="null" stroke-opacity="null" stroke-width="5" transform="matrix(-1.00541, 0, 0, 1, 295.46, 0.679362)"/>
   <ellipse cx="92.23" cy="209.25" fill="#ffffff" id="svg_32" rx="7.66" ry="7.66" stroke="#000000" stroke-dasharray="null" stroke-linecap="null" stroke-linejoin="null" stroke-opacity="null" stroke-width="5" transform="matrix(-1.00541, 0, 0, 1, 295.46, 0.679362)"/>
   <ellipse cx="118.61" cy="220.32" fill="#ffffff" id="svg_33" rx="7.66" ry="7.66" stroke="#000000" stroke-dasharray="null" stroke-linecap="null" stroke-linejoin="null" stroke-opacity="null" stroke-width="5" transform="matrix(-1.00541, 0, 0, 1, 295.46, 0.679362)"/>
   <ellipse cx="52.88" cy="206.49" fill="#ffffff" id="svg_34" rx="7.66" ry="7.66" stroke="#000000" stroke-dasharray="null" stroke-linecap="null" stroke-linejoin="null" stroke-opacity="null" stroke-width="5" transform="matrix(-1.00541, 0, 0, 1, 295.46, 0.679362)"/>
   <ellipse cx="76.28" cy="227.33" fill="#ffffff" id="svg_35" rx="7.66" ry="7.66" stroke="#000000" stroke-dasharray="null" stroke-linecap="null" stroke-linejoin="null" stroke-opacity="null" stroke-width="5" transform="matrix(-1.00541, 0, 0, 1, 295.46, 0.679362)"/>
   <ellipse cx="111.17" cy="241.81" fill="#ffffff" id="svg_36" rx="7.66" ry="7.66" stroke="#000000" stroke-dasharray="null" stroke-linecap="null" stroke-linejoin="null" stroke-opacity="null" stroke-width="5" transform="matrix(-1.00541, 0, 0, 1, 295.46, 0.679362)"/>
  </g>
 </g>
</svg>